<svg xmlns="http://www.w3.org/2000/svg" width="120" height="119" viewBox="0 0 120 119">
    <g fill="#FFF" fill-rule="evenodd">
        <path d="M71.38 102.42c-10.509 0-18.998-8.488-18.998-18.997 0-5.255 2.022-9.97 5.794-13.609l3.368-3.233.135 4.58c0 .136.27 7.142 3.503 11.319l-3.233 2.425c-2.021-2.56-3.1-5.928-3.638-8.623-1.213 2.156-1.752 4.581-1.752 7.14 0 8.22 6.737 14.957 14.956 14.957 8.22 0 14.956-6.737 14.956-14.956V9.626h4.042v73.797c-.134 10.51-8.623 18.998-19.133 18.998M35.284 75.95c-10.51 0-18.998-8.488-18.998-18.998 0-5.255 2.021-9.97 5.794-13.608l3.368-3.234.135 4.581c0 .135.27 7.141 3.503 11.318l-3.234 2.425c-2.02-2.56-3.099-5.928-3.638-8.623-1.212 2.156-1.751 4.582-1.751 7.141 0 8.22 6.737 14.956 14.956 14.956s14.956-6.737 14.956-14.956V2.406h4.042v54.546c-.135 10.51-8.624 18.998-19.133 18.998"/>
        <path d="M59.81 4.042c-30.586 0-55.378 24.926-55.378 55.512 0 30.585 24.792 55.377 55.377 55.377s55.377-24.792 55.377-55.377c0-30.586-24.792-55.512-55.377-55.512m0 114.931c-32.741 0-59.42-26.678-59.42-59.42C.39 26.814 27.069 0 59.81 0s59.42 26.678 59.42 59.42c0 32.74-26.679 59.553-59.42 59.553"/>
    </g>
</svg>
